# xmcd
#
# Track frame offsets:
# 150
# 14720
# 25164
# 40206
# 53312
# 67901
# 83081
# 96217
# 110481
# 122102
# 137995
# 153807
# 167335
# 187147
# 200354
# 212237
# 232574
# 244837
# 257923
#
# Disc length: 3621 seconds
#
#
# Revision: 0
# Processed by: cddbd v1.5.1PL0 Copyright (c) Steve Scherf et al.
# Submitted via: FreeRIP 2.941 
#
DISCID=f90e2313
DTITLE=Bonde do Forró - Arrebente Coração
DYEAR=2004
DGENRE=Forró
TTITLE0=Será
TTITLE1=Sempre meu Homem
TTITLE2=Porque Brigamos
TTITLE3=Inevitável
TTITLE4=Parabéns Pro Nosso Amor
TTITLE5=Só Falta Você
TTITLE6=Mexe o Bumbum
TTITLE7=Bebo Porque Gosto de Beber
TTITLE8=Chico Bola
TTITLE9=Chefe do Puteiro
TTITLE10=Milk Shake
TTITLE11=Mordida de Amor
TTITLE12=Os Corações Não Saõ Iguais
TTITLE13=Verdura Minha
TTITLE14=Tá Liberado
TTITLE15=Se não Tivesse Ido
TTITLE16=Homem Galinha
TTITLE17=Tchaca na Buchaca
TTITLE18=O Grito da Galera
EXTD=
EXTT0=
EXTT1=
EXTT2=
EXTT3=
EXTT4=
EXTT5=
EXTT6=
EXTT7=
EXTT8=
EXTT9=
EXTT10=
EXTT11=
EXTT12=
EXTT13=
EXTT14=
EXTT15=
EXTT16=
EXTT17=
EXTT18=
PLAYORDER=
